<svg viewBox="0 0 100 100" width="50" height="50" xmlns="http://www.w3.org/2000/svg">
  <!-- Center circle of the daisy -->
  <circle cx="50" cy="50" r="10" fill="#FFD700"/>

  <!-- Petals of the daisy -->
  <g fill="#d87093">
    <ellipse cx="50" cy="20" rx="5" ry="20" />
    <ellipse cx="50" cy="80" rx="5" ry="20" />
    <ellipse cx="20" cy="50" rx="20" ry="5" />
    <ellipse cx="80" cy="50" rx="20" ry="5" />
    <ellipse cx="30" cy="30" rx="5" ry="20" transform="rotate(-45 30 30)" />
    <ellipse cx="70" cy="30" rx="5" ry="20" transform="rotate(45 70 30)" />
    <ellipse cx="30" cy="70" rx="5" ry="20" transform="rotate(45 30 70)" />
    <ellipse cx="70" cy="70" rx="5" ry="20" transform="rotate(-45 70 70)" />
    <ellipse cx="35" cy="25" rx="5" ry="20" transform="rotate(-30 35 25)" />
    <ellipse cx="65" cy="25" rx="5" ry="20" transform="rotate(30 65 25)" />
    <ellipse cx="35" cy="75" rx="5" ry="20" transform="rotate(30 35 75)" />
    <ellipse cx="65" cy="75" rx="5" ry="20" transform="rotate(-30 65 75)" />
  </g>
</svg>
